<?xml version="1.0" encoding="utf-8"?>
<!-- Generator: Adobe Illustrator 13.0.1, SVG Export Plug-In . SVG Version: 6.00 Build 14948)  -->
<!DOCTYPE svg PUBLIC "-//W3C//DTD SVG 1.1//EN" "http://www.w3.org/Graphics/SVG/1.1/DTD/svg11.dtd">
<svg version="1.1" id="Слой_1" xmlns="http://www.w3.org/2000/svg" xmlns:xlink="http://www.w3.org/1999/xlink" x="0px" y="0px"
	 width="500px" height="250px" viewBox="0 0 500 250" enable-background="new 0 0 500 250" xml:space="preserve">
<g>
	<path fill="#FFFFFF" d="M116.212,129.361c-1.758,0-3.183,1.426-3.183,3.184s1.425,3.182,3.183,3.182
		c1.757,0,3.182-1.424,3.182-3.182S117.969,129.361,116.212,129.361z M374.561,97.917c1.758,0,3.183-1.425,3.183-3.182
		s-1.425-3.182-3.183-3.182c-1.757,0-3.182,1.425-3.182,3.182S372.804,97.917,374.561,97.917z M91.141,67.249
		c-8.048,0-14.573,6.524-14.573,14.573c0,5.805,3.25,10.762,8.162,13.106l0.14,0.052v12.76h4.703v2.767h3.137v-2.767h4.704V95.014
		c0,0,0.366-0.216,0.432-0.25c4.675-2.426,7.87-7.311,7.87-12.943C105.715,73.773,99.19,67.249,91.141,67.249z M384.39,176.746
		l-2.522,2.52l4.909,4.908l2.521-2.52c1.616,1.035,3.4,1.775,5.275,2.186v3.563h6.942v-3.563c1.873-0.41,3.657-1.15,5.275-2.186
		l2.52,2.52l4.911-4.908l-2.522-2.521c1.039-1.617,1.777-3.4,2.188-5.275h3.563v-6.943h-3.563c-0.411-1.873-1.149-3.656-2.188-5.273
		l2.521-2.521l-4.909-4.908l-2.52,2.52c-1.618-1.039-3.402-1.777-5.275-2.188v-3.561h-6.942v3.561
		c-1.875,0.41-3.659,1.148-5.275,2.188l-2.521-2.521l-4.908,4.912l2.521,2.52c-1.039,1.617-1.778,3.4-2.188,5.273h-3.563v6.943
		h3.563C382.611,173.344,383.351,175.127,384.39,176.746z M398.044,159.156c4.875,0,8.842,3.967,8.842,8.842
		s-3.967,8.842-8.842,8.842c-4.876,0-8.842-3.967-8.842-8.842S393.168,159.156,398.044,159.156z M447.887,136.594l-14.389,14.49
		l0.001,0.031v18.268c0,19.965-16.199,36.158-36.159,36.158c-19.961,0-36.159-16.193-36.159-36.158l0.007-89.526
		c0-36.26-29.417-65.672-65.676-65.672c-28.533,0-52.835,18.223-61.889,43.664l-0.183,0.406h-52.301c-1.836,0-3.32,1.486-3.32,3.32
		l8.854,36.525c0,1.833,1.485,3.32,3.321,3.32h9.131v2.766v0.37h-9.479c-1.835,0-3.32,1.487-3.32,3.32v77.292
		c0,1.834,1.485,3.32,3.32,3.32h34.737c-6.388,10.236-17.75,17.051-30.696,17.051c-19.961,0-36.158-16.193-36.158-36.158v-37.029
		l0.006,0.1V79.857c0-36.26-29.417-65.672-65.676-65.672c-36.25,0-65.672,29.412-65.672,65.672v45.401l0.029,0.161L40.65,110.93
		l14.874,14.857l0.177,0.162v-45.71c0-19.964,16.2-36.158,36.159-36.158c19.962,0,36.16,16.194,36.16,36.158v51.291l-0.007-0.145
		v38.381c0,36.26,29.417,65.672,65.676,65.672c29.745,0,54.892-19.807,62.958-46.947h46.446c1.833,0,1.106-1.486,1.106-3.32v-77.292
		c0-1.833-1.484-3.32-3.32-3.32h-9.336v-3.136h9.131c1.833,0,3.32-1.487,3.32-3.32l7.598-31.341l0.052-0.25
		c4.163,0,7.537-3.469,7.537-7.748v-5.829l0.035,0.005c7.63,6.63,12.456,16.403,12.456,27.3l-0.006,89.527
		c0,36.26,29.416,65.672,65.676,65.672c36.25,0,65.671-29.412,65.671-65.672l-0.012-18.094L447.887,136.594z M279.745,58.256
		l-0.196-0.001h-12.731l0.293-0.39c3.313-4.198,7.534-7.644,12.366-10.041l0.229-0.11L279.745,58.256z M306.877,199.352
		c-8.341,0-15.104,6.762-15.104,15.104c0,8.34,6.763,15.104,15.104,15.104s15.103-6.764,15.103-15.104
		C321.979,206.113,315.218,199.352,306.877,199.352z M454.383,95.062V79.029h-14.291v16.033H454.383z M454.714,76.079
		c7.676-21.116,9.382-47.424-7.404-61.786c-0.053-0.045-0.066-0.058-0.145,0c-16.786,14.361-15.079,40.669-7.404,61.786
		C440.808,76.079,453.67,76.079,454.714,76.079z M437.099,95.062V77.606l-0.132-0.362c-3.024-8.32-4.857-16.334-5.545-23.842
		c-10.417,18.277-8.188,41.659-8.188,41.659H437.099z M463.053,53.403c-0.688,7.507-2.521,15.522-5.545,23.842l-0.132,0.362v17.456
		h13.864C471.24,95.062,473.47,71.68,463.053,53.403z M400.578,59.215l9.229-9.228l-9.229-9.229V44.9H389.03v10.174h11.548V59.215z
		 M197.949,36.074c0,0,0.382-1.697,2.905-4.221s4.22-2.905,4.22-2.905s-1.696-0.313-4.15-2.767
		c-2.455-2.455-2.975-4.359-2.975-4.359s-0.45,1.626-2.698,3.944s-4.427,3.182-4.427,3.182s2.281,0.968,4.357,2.905
		C197.258,33.792,197.949,36.074,197.949,36.074z M183.674,42.139c0,0,0.261-1.159,1.984-2.881c1.723-1.724,2.882-1.984,2.882-1.984
		s-1.159-0.213-2.835-1.89s-2.031-2.977-2.031-2.977s-0.307,1.11-1.843,2.693c-1.534,1.583-3.022,2.173-3.022,2.173
		s1.559,0.66,2.977,1.984C183.204,40.58,183.674,42.139,183.674,42.139z M93.742,159.486H65.678c-0.486,0-0.936,0.143-1.322,0.381
		c-6.203-4.773-13.972-7.613-22.406-7.613c-20.307,0-36.768,16.461-36.768,36.768s16.461,36.768,36.768,36.768
		s36.77-16.461,36.77-36.768c0-3.41-0.465-6.711-1.334-9.844h16.356c1.399,0,2.532-1.135,2.532-2.531v-14.629
		C96.274,160.619,95.141,159.486,93.742,159.486z"/>
</g>
<g>
	<g>
		<path fill="none" stroke="#07A2C8" stroke-width="1.2756" d="M84.874,94.914c-4.912-2.344-8.306-7.356-8.306-13.161
			c0-8.049,6.525-14.573,14.573-14.573c8.049,0,14.574,6.524,14.574,14.573c0,5.71-3.285,10.653-8.067,13.043"/>
		<path fill="none" stroke="#07A2C8" stroke-width="1.2756" d="M91.141,91.898c-5.604,0-10.145-4.542-10.145-10.146"/>
	</g>
	<polyline fill="none" stroke="#07A2C8" stroke-width="1.2756" points="97.414,94.849 97.414,107.67 84.87,107.67 84.87,95.035 	"/>
	<line fill="none" stroke="#07A2C8" stroke-width="1.2756" x1="82.149" y1="99.185" x2="100.134" y2="99.185"/>
	<line fill="none" stroke="#07A2C8" stroke-width="1.2756" x1="82.149" y1="102.782" x2="100.134" y2="102.782"/>
	<rect x="89.573" y="107.67" fill="none" stroke="#07A2C8" stroke-width="1.2756" width="3.137" height="2.768"/>
	<g>
		<g>
			<line fill="none" stroke="#07A2C8" stroke-width="1.2756" x1="66.545" y1="81.43" x2="73.117" y2="81.43"/>
			<line fill="none" stroke="#07A2C8" stroke-width="1.2756" x1="108.88" y1="81.43" x2="115.453" y2="81.43"/>
		</g>
		<g>
			<line fill="none" stroke="#07A2C8" stroke-width="1.2756" x1="73.708" y1="98.721" x2="78.355" y2="94.074"/>
			<line fill="none" stroke="#07A2C8" stroke-width="1.2756" x1="103.643" y1="68.786" x2="108.291" y2="64.138"/>
		</g>
		<g>
			<line fill="none" stroke="#07A2C8" stroke-width="1.2756" x1="73.708" y1="64.138" x2="78.355" y2="68.786"/>
			<line fill="none" stroke="#07A2C8" stroke-width="1.2756" x1="103.643" y1="94.074" x2="108.291" y2="98.721"/>
		</g>
		<g>
			<line fill="none" stroke="#07A2C8" stroke-width="1.2756" x1="90.999" y1="56.976" x2="90.999" y2="63.548"/>
		</g>
	</g>
</g>
<g>
	<g>
		<circle fill="none" stroke="#666666" stroke-width="1.2756" cx="116.212" cy="132.475" r="3.182"/>
		<g>
			<path fill="none" stroke="#666666" stroke-linecap="round" stroke-dasharray="5.6693" d="M116.214,135.617v34.129
				c0,42.955,34.849,77.797,77.802,77.797l0,0c36.329,0,66.87-24.938,75.415-58.627c0.031-0.129,0.064-0.256,0.096-0.385"/>
		</g>
	</g>
	<g>
		<circle fill="none" stroke="#666666" stroke-width="1.2756" cx="374.561" cy="94.666" r="3.182"/>
		<g>
			<path fill="none" stroke="#666666" stroke-linecap="round" stroke-dasharray="5.6693" d="M374.559,91.16V79.254
				c0-42.955-34.849-77.798-77.802-77.798l0,0c-35.619,0-65.673,23.972-74.887,56.662"/>
		</g>
	</g>
	<g>
		<path fill="none" stroke="#666666" stroke-width="1.2756" stroke-linecap="round" d="M157.534,132.383V79.788
			c0-36.259-29.417-65.672-65.676-65.672l0,0c-36.25,0-65.672,29.413-65.672,65.672v45.401"/>
		<path fill="none" stroke="#666666" stroke-width="1.2756" stroke-linecap="round" d="M128.02,131.461V80.169
			c0-19.963-16.198-36.158-36.16-36.158l0,0c-19.959,0-36.159,16.195-36.159,36.158v45.709"/>
	</g>
	<g>
		<path fill="none" stroke="#666666" stroke-width="1.2756" d="M128.013,131.314v38.381c0,36.26,29.417,65.674,65.676,65.674l0,0
			c29.784,0,54.959-19.857,62.992-47.053"/>
		<path fill="none" stroke="#666666" stroke-width="1.2756" d="M157.528,132.283v37.031c0,19.963,16.197,36.158,36.158,36.158l0,0
			c12.98,0,24.371-6.85,30.749-17.131"/>
	</g>
	<g>
		<path fill="none" stroke="#666666" stroke-width="1.2756" d="M361.188,131.178v-51.39c0-36.259-29.417-65.672-65.676-65.672l0,0
			c-28.533,0-52.835,18.222-61.889,43.664"/>
		<path fill="none" stroke="#666666" stroke-width="1.2756" d="M279.477,47.756c-4.832,2.396-9.054,5.843-12.366,10.04"/>
		<path fill="none" stroke="#666666" stroke-width="1.2756" d="M331.673,131.461V80.169c0-10.908-4.836-20.69-12.479-27.32"/>
	</g>
	<g>
		<path fill="none" stroke="#666666" stroke-width="1.2756" stroke-linecap="round" d="M331.667,130.854v38.842
			c0,36.26,29.416,65.674,65.676,65.674l0,0c36.25,0,65.671-29.414,65.671-65.674v-17.982"/>
		<path fill="none" stroke="#666666" stroke-width="1.2756" stroke-linecap="round" d="M361.181,129.932v39.383
			c0,19.963,16.198,36.158,36.159,36.158l0,0c19.96,0,36.159-16.195,36.159-36.158v-18.109"/>
	</g>
	<g>
		<g>
			<path fill="none" stroke="#666666" stroke-width="1.2756" stroke-linecap="round" d="M417.45,171.4v-6.943h-3.563
				c-0.411-1.873-1.149-3.658-2.188-5.275l2.521-2.52l-4.909-4.91l-2.52,2.52c-1.618-1.037-3.402-1.777-5.275-2.186v-3.563h-6.942
				v3.563c-1.875,0.408-3.659,1.148-5.275,2.186l-2.521-2.52l-4.908,4.91l2.521,2.52c-1.039,1.617-1.778,3.402-2.188,5.275h-3.563
				v6.943h3.563c0.41,1.873,1.149,3.658,2.188,5.275l-2.522,2.52l4.909,4.908l2.521-2.52c1.616,1.037,3.4,1.777,5.275,2.188v3.563
				h6.942v-3.563c1.873-0.41,3.657-1.15,5.275-2.188l2.52,2.52l4.911-4.908l-2.522-2.52c1.039-1.617,1.777-3.402,2.188-5.275H417.45
				z M398.044,176.77c-4.876,0-8.842-3.965-8.842-8.84c0-4.877,3.966-8.844,8.842-8.844c4.875,0,8.842,3.967,8.842,8.844
				C406.886,172.805,402.919,176.77,398.044,176.77z"/>
		</g>
	</g>
	<polyline fill="none" stroke="#666666" stroke-width="1.2756" stroke-linecap="round" points="463.002,151.602 447.887,136.525 
		433.498,151.014 	"/>
	<polyline fill="none" stroke="#666666" stroke-width="1.2756" stroke-linecap="round" points="472.22,149.309 447.215,124.304 
		422.451,149.07 	"/>
</g>
<polyline fill="none" stroke="#666666" stroke-width="1.2756" stroke-linecap="round" points="55.524,125.719 40.65,110.861 
	26.215,125.35 "/>
<g>
	<polyline fill="none" stroke="#07A2C8" stroke-width="1.2756" points="55.917,133.83 40.65,118.562 25.968,133.244 	"/>
	<polyline fill="none" stroke="#07A2C8" stroke-width="1.2756" points="55.917,141.902 40.65,126.633 25.968,141.314 	"/>
</g>
<g>
	<g>
		<g>
			<path fill="none" stroke="#666666" stroke-width="1.2756" d="M291.104,104.488h9.775c1.836,0,3.32,1.487,3.32,3.32v77.293
				c0,1.832,0.727,3.32-1.106,3.32H189.645c-1.835,0-3.32-1.488-3.32-3.32v-77.293c0-1.833,1.485-3.32,3.32-3.32h9.131"/>
			<path fill="none" stroke="#666666" stroke-width="1.2756" d="M311.593,66.691l-7.598,31.341c0,1.833-1.487,3.32-3.32,3.32h-9.317
				"/>
			<path fill="none" stroke="#666666" stroke-width="1.2756" d="M199.077,101.352h-9.083c-1.836,0-3.321-1.487-3.321-3.32
				l-8.854-36.525c0-1.834,1.484-3.319,3.32-3.319h98.41"/>
			<polyline fill="none" stroke="#666666" stroke-width="1.2756" points="306.56,66.45 300.397,94.342 190.27,94.342 
				183.629,64.274 281.861,64.274 			"/>
			<polygon fill="none" stroke="#666666" stroke-width="1.2756" points="291.544,107.625 199.125,107.625 199.125,104.118 
				199.125,98.77 291.544,98.77 			"/>
			<rect x="194.282" y="111.313" fill="none" stroke="#666666" stroke-width="1.2756" width="102.104" height="37.494"/>
			<g>
				<path fill="none" stroke="#666666" stroke-width="1.2756" d="M266.176,180.922c0,1.076-0.874,1.951-1.95,1.951h-37.784
					c-1.076,0-1.949-0.875-1.949-1.951v-23.645c0-1.076,0.873-1.949,1.949-1.949h37.784c1.076,0,1.95,0.873,1.95,1.949V180.922z"/>
				<line fill="none" stroke="#666666" stroke-width="1.2756" x1="256.452" y1="155.334" x2="256.452" y2="182.865"/>
				<line fill="none" stroke="#666666" stroke-width="1.2756" x1="265.998" y1="169.1" x2="256.175" y2="169.1"/>
			</g>
			<g>
				<g>
					<rect x="198.779" y="115.879" fill="none" stroke="#666666" stroke-width="1.2756" width="7.333" height="5.533"/>
					<rect x="209.5" y="115.879" fill="none" stroke="#666666" stroke-width="1.2756" width="7.333" height="5.533"/>
					<rect x="220.223" y="115.879" fill="none" stroke="#666666" stroke-width="1.2756" width="7.332" height="5.533"/>
					<rect x="230.946" y="115.879" fill="none" stroke="#666666" stroke-width="1.2756" width="7.332" height="5.533"/>
					<rect x="241.667" y="115.879" fill="none" stroke="#666666" stroke-width="1.2756" width="7.333" height="5.533"/>
					<rect x="252.39" y="115.879" fill="none" stroke="#666666" stroke-width="1.2756" width="7.333" height="5.533"/>
					<rect x="263.112" y="115.879" fill="none" stroke="#666666" stroke-width="1.2756" width="7.333" height="5.533"/>
					<rect x="273.835" y="115.879" fill="none" stroke="#666666" stroke-width="1.2756" width="7.332" height="5.533"/>
					<rect x="284.557" y="115.879" fill="none" stroke="#666666" stroke-width="1.2756" width="7.333" height="5.533"/>
				</g>
				<rect x="209.5" y="123.626" fill="none" stroke="#666666" stroke-width="1.2756" width="7.333" height="5.534"/>
				<rect x="220.223" y="123.626" fill="none" stroke="#666666" stroke-width="1.2756" width="7.332" height="5.534"/>
				<rect x="230.946" y="123.626" fill="none" stroke="#666666" stroke-width="1.2756" width="7.332" height="5.534"/>
				<rect x="241.667" y="123.626" fill="none" stroke="#666666" stroke-width="1.2756" width="7.333" height="5.534"/>
				<rect x="252.39" y="123.626" fill="none" stroke="#666666" stroke-width="1.2756" width="7.333" height="5.534"/>
				<rect x="263.112" y="123.626" fill="none" stroke="#666666" stroke-width="1.2756" width="7.333" height="5.534"/>
				<rect x="273.835" y="123.626" fill="none" stroke="#666666" stroke-width="1.2756" width="7.332" height="5.534"/>
				<rect x="198.779" y="123.626" fill="none" stroke="#666666" stroke-width="1.2756" width="7.333" height="13.282"/>
				<rect x="284.557" y="123.626" fill="none" stroke="#666666" stroke-width="1.2756" width="7.333" height="13.282"/>
				<rect x="220.223" y="131.375" fill="none" stroke="#666666" stroke-width="1.2756" width="7.332" height="5.533"/>
				<rect x="209.5" y="131.375" fill="none" stroke="#666666" stroke-width="1.2756" width="7.333" height="5.533"/>
				<rect x="230.946" y="131.375" fill="none" stroke="#666666" stroke-width="1.2756" width="7.332" height="5.533"/>
				<rect x="263.112" y="131.375" fill="none" stroke="#666666" stroke-width="1.2756" width="7.333" height="5.533"/>
				<rect x="273.835" y="131.375" fill="none" stroke="#666666" stroke-width="1.2756" width="7.332" height="5.533"/>
				<rect x="241.667" y="131.375" fill="none" stroke="#666666" stroke-width="1.2756" width="7.333" height="5.533"/>
				<rect x="252.39" y="131.375" fill="none" stroke="#666666" stroke-width="1.2756" width="7.333" height="5.533"/>
				<rect x="198.779" y="139.121" fill="none" stroke="#666666" stroke-width="1.2756" width="7.333" height="5.535"/>
				<rect x="209.5" y="139.121" fill="none" stroke="#666666" stroke-width="1.2756" width="7.333" height="5.535"/>
				<rect x="220.223" y="139.121" fill="none" stroke="#666666" stroke-width="1.2756" width="50.222" height="5.535"/>
				<rect x="273.835" y="139.121" fill="none" stroke="#666666" stroke-width="1.2756" width="7.332" height="5.535"/>
				<rect x="284.557" y="139.121" fill="none" stroke="#666666" stroke-width="1.2756" width="7.333" height="5.535"/>
			</g>
		</g>
	</g>
	<g>
		<path fill="none" stroke="#666666" stroke-width="1.2756" d="M287.241,36.927h24.403c4.163,0,7.537,3.468,7.537,7.748v14.02
			c0,4.278-3.374,7.748-7.537,7.748H295.81l-0.96,1.198l-5.67,8.024v-9.223h-1.938c-4.162,0-7.536-3.47-7.536-7.748v-14.02
			C279.705,40.395,283.079,36.927,287.241,36.927z"/>
		<g>
			<line fill="none" stroke="#666666" stroke-width="1.2756" x1="311.479" y1="46.612" x2="287.407" y2="46.612"/>
			<line fill="none" stroke="#666666" stroke-width="1.2756" x1="311.479" y1="51.569" x2="287.407" y2="51.569"/>
			<line fill="none" stroke="#666666" stroke-width="1.2756" x1="296.267" y1="56.527" x2="287.407" y2="56.527"/>
		</g>
	</g>
</g>
<g>
	<circle fill="none" stroke="#07A2C8" stroke-width="1.2756" cx="306.876" cy="214.385" r="15.103"/>
	<path fill="none" stroke="#07A2C8" stroke-width="1.2756" d="M302.287,221.225l0.001-13.68l11.944,6.84L302.287,221.225z"/>
</g>
<g>
	<path fill="none" stroke="#666666" stroke-width="1.2756" stroke-linecap="round" d="M447.31,14.224
		c-0.053-0.045-0.066-0.059-0.145,0c-16.786,14.361-15.079,40.669-7.404,61.785c1.047,0,13.909,0,14.953,0
		C462.39,54.893,464.096,28.585,447.31,14.224z"/>
	<g>
		<path fill="none" stroke="#666666" stroke-width="1.2756" stroke-linecap="round" d="M467.672,90.244
			c0,0,1.081-11.894-3.029-23.085"/>
		<path fill="none" stroke="#666666" stroke-width="1.2756" stroke-linecap="round" d="M426.804,90.244
			c0,0-1.082-11.894,3.027-23.085"/>
	</g>
	<g>
		<path fill="none" stroke="#666666" stroke-width="1.2756" stroke-linecap="round" d="M463.053,53.333
			c-0.688,7.508-2.521,15.522-5.545,23.842l-0.132,0.362v17.455h13.864C471.24,94.993,473.47,71.612,463.053,53.333z"/>
		<path fill="none" stroke="#666666" stroke-width="1.2756" stroke-linecap="round" d="M431.422,53.333
			c0.688,7.508,2.521,15.522,5.545,23.842l0.132,0.362v17.455h-13.864C423.234,94.993,421.005,71.612,431.422,53.333z"/>
	</g>
	<circle fill="none" stroke="#666666" stroke-width="1.2756" stroke-linecap="round" cx="447.237" cy="41.294" r="3.572"/>
	<circle fill="none" stroke="#666666" stroke-width="1.2756" stroke-linecap="round" cx="447.237" cy="57.932" r="3.572"/>
	
		<line fill="none" stroke="#666666" stroke-width="1.2756" stroke-linecap="round" x1="436.66" y1="30.47" x2="457.814" y2="30.47"/>
	
		<line fill="none" stroke="#666666" stroke-width="1.2756" stroke-linecap="round" x1="438.127" y1="26.737" x2="456.348" y2="26.737"/>
	
		<line fill="none" stroke="#666666" stroke-width="1.2756" stroke-linecap="round" x1="438.101" y1="70.677" x2="456.374" y2="70.677"/>
	<g>
		
			<rect x="440.092" y="78.959" fill="none" stroke="#666666" stroke-width="1.2756" stroke-linecap="round" width="14.291" height="16.033"/>
		
			<line fill="none" stroke="#666666" stroke-width="1.2756" stroke-linecap="round" x1="451.823" y1="81.768" x2="451.823" y2="91.046"/>
	</g>
</g>
<g>
	<path fill="none" stroke="#07A2C8" stroke-width="1.2756" d="M411.654,139.916c-2.765-3.896-1.848-9.295,2.049-12.059
		c3.106-2.205,7.174-2.066,10.094,0.055"/>
	<path fill="none" stroke="#07A2C8" stroke-width="1.2756" d="M419.313,126.143c-0.197-0.657-0.302-1.35-0.302-2.07
		c0-3.983,3.229-7.214,7.212-7.214"/>
	<path fill="none" stroke="#07A2C8" stroke-width="1.2756" d="M393.81,136.578c0.748-0.676,1.594-1.27,2.529-1.756
		c4.6-2.395,10.038-1.523,13.662,1.783"/>
	<path fill="none" stroke="#07A2C8" stroke-width="1.2756" d="M483.482,151.375c0.181-0.602,0.442-1.188,0.786-1.746
		c2.169-3.539,6.796-4.648,10.334-2.479c2.791,1.713,4.071,4.955,3.42,7.984"/>
	<path fill="none" stroke="#07A2C8" stroke-width="1.2756" d="M426.563,116.227c-0.188-0.554-0.29-1.146-0.29-1.764
		c0-3.029,2.456-5.484,5.484-5.484c1.84,0,3.469,0.905,4.465,2.296"/>
	<path fill="none" stroke="#07A2C8" stroke-width="1.2756" d="M436.297,111.335c0.691-1.958,2.212-3.525,4.142-4.277"/>
	<path fill="none" stroke="#07A2C8" stroke-width="1.2756" d="M440.347,107.025c-0.063-0.392-0.098-0.793-0.098-1.203
		c0-4.067,3.296-7.364,7.363-7.364s7.364,3.297,7.364,7.364c0,0.593-0.071,1.169-0.203,1.722"/>
	<path fill="none" stroke="#07A2C8" stroke-width="1.2756" d="M454.756,107.615c0.899-0.38,1.888-0.59,2.925-0.59
		c4.149,0,7.514,3.364,7.514,7.514c0,0.481-0.045,0.952-0.133,1.408"/>
	<path fill="none" stroke="#07A2C8" stroke-width="1.2756" d="M479.979,135.535c4.484-0.117,8.713,2.666,10.23,7.135
		c0.371,1.09,0.552,2.201,0.563,3.293"/>
	<path fill="none" stroke="#07A2C8" stroke-width="1.2756" d="M473.764,128.871c3.349,0.322,5.968,3.146,5.968,6.58
		c0,1.109-0.273,2.156-0.758,3.076"/>
	<path fill="none" stroke="#07A2C8" stroke-width="1.2756" d="M466.667,130.191c-2.865-1.387-4.84-4.32-4.84-7.716
		c0-4.73,3.835-8.565,8.565-8.565c4.731,0,8.566,3.835,8.566,8.565c0,2.765-1.311,5.224-3.345,6.791"/>
</g>
<polygon fill="none" stroke="#07A2C8" stroke-width="1.2756" points="389.03,55.005 400.578,55.005 400.578,59.146 409.807,49.919 
	400.578,40.691 400.578,44.832 389.03,44.832 "/>
<g>
	<path fill="none" stroke="#07A2C8" stroke-width="1.2756" d="M200.854,31.784c-2.523,2.523-2.905,4.221-2.905,4.221
		s-0.69-2.282-2.768-4.221c-2.076-1.938-4.357-2.905-4.357-2.905s2.179-0.864,4.427-3.182s2.698-3.943,2.698-3.943
		s0.52,1.903,2.975,4.358c2.454,2.455,4.15,2.767,4.15,2.767S203.377,29.261,200.854,31.784z"/>
	<path fill="none" stroke="#07A2C8" stroke-width="1.2756" d="M185.659,39.188c-1.724,1.723-1.984,2.882-1.984,2.882
		s-0.471-1.559-1.889-2.882c-1.418-1.324-2.977-1.984-2.977-1.984s1.488-0.59,3.022-2.173c1.536-1.583,1.843-2.693,1.843-2.693
		s0.355,1.3,2.031,2.977c1.676,1.677,2.835,1.89,2.835,1.89S187.381,37.464,185.659,39.188z"/>
</g>
<g>
	<g>
		<g>
			<polyline fill="none" stroke="#07A2C8" stroke-width="1.2756" points="17.301,216.104 17.865,211.334 33.899,209.568 			"/>
			<path fill="none" stroke="#07A2C8" stroke-width="1.2756" d="M25.591,226.688"/>
		</g>
		<g>
			<polyline fill="none" stroke="#07A2C8" stroke-width="1.2756" points="67.437,215.361 66.96,211.334 50.907,209.4 			"/>
			<path fill="none" stroke="#07A2C8" stroke-width="1.2756" d="M59.234,226.688"/>
		</g>
		<polygon fill="none" stroke="#07A2C8" stroke-width="1.2756" points="33.953,209.426 41.3,214.965 43.929,214.926 51.117,209.426 
			49.649,207.15 42.754,212.066 35.786,206.932 		"/>
		<g>
			<line fill="none" stroke="#07A2C8" stroke-width="1.2756" x1="36.959" y1="199.377" x2="36.959" y2="207.664"/>
			<line fill="none" stroke="#07A2C8" stroke-width="1.2756" x1="48.696" y1="199.377" x2="48.696" y2="207.664"/>
		</g>
		<line fill="none" stroke="#07A2C8" stroke-width="1.2756" x1="45.289" y1="225.469" x2="43.853" y2="214.928"/>
		<line fill="none" stroke="#07A2C8" stroke-width="1.2756" x1="41.16" y1="214.871" x2="39.452" y2="225.434"/>
		<path fill="none" stroke="#07A2C8" stroke-width="1.2756" d="M56.501,178.471v7.723c0,7.807-6.327,14.137-14.134,14.137l0,0
			c-7.81,0-14.136-6.33-14.136-14.137v-7.207"/>
		<path fill="none" stroke="#07A2C8" stroke-width="1.2756" d="M26.176,178.986v-2.342c0-8.941,7.247-16.189,16.189-16.189l0,0
			c1.764,0,3.463,0.281,5.053,0.803c-0.336,8.998,0.471,17.141-21.168,17.729"/>
		<path fill="none" stroke="#07A2C8" stroke-width="1.2756" d="M59.113,178.838c-12.019-0.074-11.387-11.906-11.444-16.43
			c5.687-1.393,11.547,7.205,11.547,14.969v1.387"/>
		<path fill="none" stroke="#07A2C8" stroke-width="1.2756" d="M28.194,189.033c-1.762,0-3.189-1.855-3.189-4.143
			c0-2.289,1.428-4.145,3.189-4.145"/>
		<path fill="none" stroke="#07A2C8" stroke-width="1.2756" d="M56.543,180.746c1.764,0,3.192,1.855,3.192,4.145
			c0,2.287-1.429,4.143-3.192,4.143"/>
	</g>
	<path fill="none" stroke="#07A2C8" stroke-linecap="round" stroke-dasharray="5.6693" d="M81.789,179.465
		c0.654,2.906,0.999,5.932,0.999,9.035c0,22.637-18.35,40.988-40.989,40.988c-22.636,0-40.987-18.352-40.987-40.988
		s18.352-40.988,40.987-40.988c11.173,0,21.302,4.471,28.695,11.719"/>
</g>
<g>
	<path fill="none" stroke="#666666" stroke-width="1.2756" stroke-linecap="round" d="M77.381,179.09
		c0.872,3.139,1.338,6.445,1.338,9.863c0,20.307-16.463,36.768-36.77,36.768S5.182,209.26,5.182,188.953
		c0-20.309,16.461-36.77,36.768-36.77c8.448,0,16.23,2.85,22.439,7.639"/>
	<g>
		<path fill="none" stroke="#666666" stroke-width="1.2756" stroke-linecap="round" d="M93.742,159.416H65.678
			c-1.398,0-2.531,1.135-2.531,2.533v14.627c0,1.398,1.133,2.531,2.531,2.531h1.719v8.281l6.381-8.281h19.964
			c1.399,0,2.532-1.133,2.532-2.531v-14.627C96.274,160.551,95.141,159.416,93.742,159.416z"/>
		<g>
			<circle fill="none" stroke="#666666" stroke-width="1.2756" stroke-linecap="round" cx="72.08" cy="169.313" r="2.528"/>
			<circle fill="none" stroke="#666666" stroke-width="1.2756" stroke-linecap="round" cx="79.711" cy="169.313" r="2.528"/>
			<circle fill="none" stroke="#666666" stroke-width="1.2756" stroke-linecap="round" cx="87.342" cy="169.313" r="2.528"/>
		</g>
	</g>
</g>
<g>
	<path fill="none" stroke="#07A2C8" stroke-width="1.2756" d="M271.319,88.626c1.131-1.374,1.809-3.133,1.809-5.05
		c0-4.254-3.342-7.719-7.544-7.935c-0.499-3.912-3.833-6.938-7.882-6.938s-7.383,3.026-7.884,6.938
		c-4.2,0.216-7.542,3.681-7.542,7.935c0,1.917,0.679,3.676,1.807,5.05H271.319z"/>
	<circle fill="none" stroke="#07A2C8" stroke-width="1.2756" cx="209.279" cy="87.52" r="3.183"/>
	<circle fill="none" stroke="#07A2C8" stroke-width="1.2756" cx="229.201" cy="74.376" r="3.182"/>
	<circle fill="none" stroke="#07A2C8" stroke-width="1.2756" cx="276.933" cy="70.779" r="3.182"/>
	<line fill="none" stroke="#07A2C8" stroke-width="1.2756" x1="267.575" y1="75.988" x2="274.028" y2="72.301"/>
	<line fill="none" stroke="#07A2C8" stroke-width="1.2756" x1="232.034" y1="75.674" x2="242.483" y2="80.463"/>
	<line fill="none" stroke="#07A2C8" stroke-width="1.2756" x1="211.815" y1="85.813" x2="226.464" y2="76.176"/>
</g>
<g>
	<path fill="none" stroke="#07A2C8" stroke-linecap="round" stroke-dasharray="5.6693" d="M142.706,136.482v33.898
		c0,28.012,22.726,50.732,50.73,50.732l0,0c21.523,0,39.932-13.422,47.297-32.354"/>
	<path fill="none" stroke="#07A2C8" stroke-linecap="round" stroke-dasharray="5.6693" d="M142.723,131.844V79.956
		c0-28.011-22.788-50.731-50.87-50.731l0,0c-28.08,0-50.87,22.721-50.87,50.731v20.758"/>
	<path fill="none" stroke="#07A2C8" stroke-linecap="round" stroke-dasharray="5.6693" d="M346.389,135.242v34.451
		c0,28.012,22.852,50.732,51.009,50.732l0,0c28.154,0,51.007-22.721,51.007-50.732v-27.936"/>
	<path fill="none" stroke="#07A2C8" stroke-linecap="round" stroke-dasharray="5.6693" d="M346.745,128.879V78.79
		c0-28.011-22.727-50.731-50.731-50.731l0,0c-20.335,0-37.89,11.982-45.978,29.271"/>
</g>
</svg>
